<mxfile host="app.diagrams.net" modified="2023-08-21T10:29:24.373Z" agent="Mozilla/5.0 (X11; Linux x86_64) AppleWebKit/537.36 (KHTML, like Gecko) Chrome/116.0.0.0 Safari/537.36" version="21.6.8" etag="_iKJaGQ69r8DDbWe2qPa" type="github">
  <diagram name="Page-1" id="GtU60h7P3xS5F-P468LY">
    <mxGraphModel>
      <root>
        <mxCell id="0" />
        <mxCell id="1" parent="0" />
      </root>
    </mxGraphModel>
  </diagram>
</mxfile>
